<?xml version="1.0" encoding="UTF-8"?>
<svg xmlns="http://www.w3.org/2000/svg" id="Layer_4" viewBox="0 0 32 32" fill="currentColor"><path d="M11.71,8.25c-1.1,6.12-5.34,10.36-11.47,11.47-.33.06-.33.51,0,.57,6.12,1.1,10.36,5.34,11.47,11.47.06.33.51.33.57,0,1.1-6.12,5.34-10.36,11.47-11.47.33-.06.33-.51,0-.57-6.12-1.1-10.36-5.34-11.47-11.47-.06-.33-.51-.33-.57,0Z" /><path d="M23.81.17c-.74,4.08-3.56,6.91-7.64,7.64-.22.04-.22.34,0,.38,4.08.74,6.91,3.56,7.64,7.64.04.22.34.22.38,0,.74-4.08,3.56-6.91,7.64-7.64.22-.04.22-.34,0-.38-4.08-.74-6.91-3.56-7.64-7.64-.04-.22-.34-.22-.38,0Z" /></svg>